<?xml version="1.0" standalone="no"?><svg xmlns:xlink="http://www.w3.org/1999/xlink" xmlns="http://www.w3.org/2000/svg" viewBox="0 0 500 299.99410293743915" preserveAspectRatio="xMaxYMax slice"><g transform="scale(0.7020312572396973)"><rect x="0" y="0" width="712.2216666666667" height="427.33299999999997" fill="#F9FBDC"/><polygon points="142.44,0 213.66,0 213.66,71.22" fill="#fbecb2"/><circle cx="249.27999999999997" cy="35.61" r="35.61" fill="#fec84b"/><rect x="356.11083333333335" y="0" width="71.22216666666667" height="71.22216666666667" fill="#F9FBDC"/><g transform="translate(391.72,0) scale(1.7805) rotate(0)"><path fill-rule="evenodd" clip-rule="evenodd" d="M10 20C15.5228 20 20 15.5228 20 10C20 4.47715 15.5228 0 10 0C4.47715 0 0 4.47715 0 10C0 15.5228 4.47715 20 10 20ZM10 17C13.866 17 17 13.866 17 10C17 6.13401 13.866 3 10 3C6.13401 3 3 6.13401 3 10C3 13.866 6.13401 17 10 17Z" fill="#6b7f8e"/></g><path d="M 427.33 71.22 A 71.22 71.22 0 0 1  498.54999999999995 0 L 427.33 71.22 A 71.22 71.22 0 0 0 498.54999999999995 0" fill="#657a8a"/><path d="M 498.56 71.22 A 71.22 71.22 0 0 1  569.78 0 L 498.56 71.22 A 71.22 71.22 0 0 0 569.78 0" fill="#fdd266"/><circle cx="178.05" cy="106.83" r="35.61" fill="#fbedb4"/><rect x="284.88866666666667" y="71.22216666666667" width="71.22216666666667" height="71.22216666666667" fill="#F9FBDC"/><rect x="71.22216666666667" y="142.44433333333333" width="71.22216666666667" height="71.22216666666667" fill="#F9FBDC"/><g transform="translate(71.22,178.06) scale(1.7805) rotate(0)"><path d="M13 0H20V7L7 20H0V13L13 0Z" fill="#fbe59c"/></g><rect x="498.55516666666665" y="142.44433333333333" width="71.22216666666667" height="71.22216666666667" fill="#F9FBDC"/><polygon points="641,142.44 712.22,142.44 712.22,213.66" fill="#e5ead1"/><rect x="0" y="213.66649999999998" width="71.22216666666667" height="71.22216666666667" fill="#F9FBDC"/><path d="M 0 213.67 A 35.61 35.61 0 0 0 35.61 249.27999999999997 L 35.61 213.67" fill="#fecc55"/><circle cx="53.415" cy="231.475" r="17.805" fill="#bac4b9"/><path d="M 142.44 213.67 A 71.22 71.22 0 0 1  213.66 284.89 L 142.44 213.67 A 71.22 71.22 0 0 0 213.66 284.89" fill="#fdd268"/><circle cx="391.72" cy="249.27999999999997" r="35.61" fill="#fbe7a3"/><g transform="translate(427.33,213.67) scale(3.561) rotate(0)"><path fill-rule="evenodd" clip-rule="evenodd" d="M10 20C15.5228 20 20 15.5228 20 10C20 4.47715 15.5228 0 10 0C4.47715 0 0 4.47715 0 10C0 15.5228 4.47715 20 10 20ZM10 17C13.866 17 17 13.866 17 10C17 6.13401 13.866 3 10 3C6.13401 3 3 6.13401 3 10C3 13.866 6.13401 17 10 17Z" fill="#fdd776"/></g><circle cx="605.39" cy="249.27999999999997" r="35.61" fill="#8e9da1"/><rect x="71.22216666666667" y="284.88866666666667" width="71.22216666666667" height="71.22216666666667" fill="#F9FBDC"/><rect x="142.44433333333333" y="284.88866666666667" width="71.22216666666667" height="71.22216666666667" fill="#F9FBDC"/><g transform="translate(178.06,284.89) scale(1.7805) rotate(0)"><path d="M10 0L20 10L10 20L0 10L10 0Z" fill="#e2e7cf"/></g><circle cx="195.865" cy="338.305" r="17.805" fill="#fdda7c"/><rect x="284.88866666666667" y="284.88866666666667" width="71.22216666666667" height="71.22216666666667" fill="#F9FBDC"/><g transform="translate(320.5,284.89) scale(1.7805) rotate(0)"><path fill-rule="evenodd" clip-rule="evenodd" d="M10 20C15.5228 20 20 15.5228 20 10C20 4.47715 15.5228 0 10 0C4.47715 0 0 4.47715 0 10C0 15.5228 4.47715 20 10 20ZM10 17C13.866 17 17 13.866 17 10C17 6.13401 13.866 3 10 3C6.13401 3 3 6.13401 3 10C3 13.866 6.13401 17 10 17Z" fill="#f9f8d3"/></g><path d="M 320.5 356.11 A 35.61 35.61 0 0 0 356.11 320.5 L 320.5 320.5" fill="#fecb53"/><polygon points="498.56,284.89 569.78,356.11 498.56,356.11" fill="#acb8b2"/><rect x="640.9995" y="284.88866666666667" width="71.22216666666667" height="71.22216666666667" fill="#F9FBDC"/><path d="M 641 320.5 A 35.61 35.61 0 0 1  676.61 284.89 L 641 320.5 A 35.61 35.61 0 0 0 676.61 284.89" fill="#fbe69f"/><g transform="translate(641,320.5) scale(1.7805) rotate(0)"><path d="M13 0H20V7L7 20H0V13L13 0Z" fill="#f9f7d0"/></g><g transform="translate(142.44,356.11) scale(3.561) rotate(0)"><path fill-rule="evenodd" clip-rule="evenodd" d="M10 20C15.5228 20 20 15.5228 20 10C20 4.47715 15.5228 0 10 0C4.47715 0 0 4.47715 0 10C0 15.5228 4.47715 20 10 20ZM10 17C13.866 17 17 13.866 17 10C17 6.13401 13.866 3 10 3C6.13401 3 3 6.13401 3 10C3 13.866 6.13401 17 10 17Z" fill="#faeeb7"/></g><polygon points="213.67,356.11 284.89,356.11 284.89,427.33000000000004" fill="#97a5a6"/><g transform="translate(641,356.11) scale(3.561) rotate(0)"><path d="M13 0H20V7L7 20H0V13L13 0Z" fill="#fce192"/></g></g></svg>