<?xml version="1.0" standalone="no"?><svg xmlns:xlink="http://www.w3.org/1999/xlink" xmlns="http://www.w3.org/2000/svg" viewBox="0 0 500 333.329356385171" preserveAspectRatio="xMaxYMax slice"><g transform="scale(1.0846222260786569)"><rect x="0" y="0" width="460.99949999999995" height="307.33299999999997" fill="#F9FBDC"/><rect x="0" y="0" width="51.22216666666666" height="51.22216666666666" fill="#F9FBDC"/><g transform="translate(0,0) scale(1.2805) rotate(0)"><path fill-rule="evenodd" clip-rule="evenodd" d="M10 20C15.5228 20 20 15.5228 20 10C20 4.47715 15.5228 0 10 0C4.47715 0 0 4.47715 0 10C0 15.5228 4.47715 20 10 20ZM10 17C13.866 17 17 13.866 17 10C17 6.13401 13.866 3 10 3C6.13401 3 3 6.13401 3 10C3 13.866 6.13401 17 10 17Z" fill="#d9afa3"/></g><g transform="translate(25.61,0) scale(1.2805) rotate(0)"><path fill-rule="evenodd" clip-rule="evenodd" d="M10 20C15.5228 20 20 15.5228 20 10C20 4.47715 15.5228 0 10 0C4.47715 0 0 4.47715 0 10C0 15.5228 4.47715 20 10 20ZM10 17C13.866 17 17 13.866 17 10C17 6.13401 13.866 3 10 3C6.13401 3 3 6.13401 3 10C3 13.866 6.13401 17 10 17Z" fill="#dab0a4"/></g><polygon points="0,25.61 25.61,25.61 0,51.22" fill="#e6cdba"/><g transform="translate(25.61,25.61) scale(1.2805) rotate(0)"><path d="M10 0L20 10L10 20L0 10L10 0Z" fill="#dbb2a5"/></g><path d="M 153.67 51.22 A 51.22 51.22 0 0 1  204.89 0 L 153.67 51.22 A 51.22 51.22 0 0 0 204.89 0" fill="#5a6670"/><path d="M 307.33 51.22 A 51.22 51.22 0 0 1  358.54999999999995 0 L 358.54999999999995 51.22" fill="#7c8687"/><circle cx="25.61" cy="76.83" r="25.61" fill="#e0bfaf"/><polygon points="102.44,51.22 102.44,102.44 51.22,102.44" fill="#b2525c"/><circle cx="179.27999999999997" cy="76.83" r="25.61" fill="#b14e5a"/><g transform="translate(204.89,51.22) scale(2.561) rotate(0)"><path d="M10 0L20 10L10 20L0 10L10 0Z" fill="#e1c2b1"/></g><circle cx="179.27999999999997" cy="128.05" r="25.61" fill="#f1f3d6"/><path d="M 358.56 102.44 A 51.22 51.22 0 0 1 409.78 153.66 L 358.56 153.66" fill="#c07376"/><path d="M 307.33 204.89 A 51.22 51.22 0 0 1  358.54999999999995 153.67 L 307.33 204.89 A 51.22 51.22 0 0 0 358.54999999999995 153.67" fill="#c47c7d"/><path d="M 256.11 256.11 A 51.22 51.22 0 0 1  307.33000000000004 204.89 L 256.11 256.11 A 51.22 51.22 0 0 0 307.33000000000004 204.89" fill="#9fa79f"/><path d="M 307.33 256.11 A 51.22 51.22 0 0 0 358.54999999999995 204.89 L 307.33 204.89" fill="#d29f96"/><path d="M 358.56 256.11 A 51.22 51.22 0 0 1  409.78 204.89 L 358.56 256.11 A 51.22 51.22 0 0 0 409.78 204.89" fill="#f8f9da"/><circle cx="435.39" cy="230.5" r="25.61" fill="#7d8687"/><rect x="51.22216666666666" y="256.1108333333333" width="51.22216666666666" height="51.22216666666666" fill="#F9FBDC"/><polygon points="102.44,256.11 153.66,256.11 102.44,307.33000000000004" fill="#6b767b"/><rect x="153.66649999999998" y="256.1108333333333" width="51.22216666666666" height="51.22216666666666" fill="#F9FBDC"/><polygon points="179.27999999999997,281.72 179.27999999999997,307.33000000000004 153.67,307.33000000000004" fill="#efe3ca"/><rect x="204.88866666666664" y="256.1108333333333" width="51.22216666666666" height="51.22216666666666" fill="#F9FBDC"/><path d="M 230.5 256.11 A 25.61 25.61 0 0 1  256.11 281.72 L 230.5 256.11 A 25.61 25.61 0 0 0 256.11 281.72" fill="#5f6a73"/><path d="M 307.33 256.11 A 51.22 51.22 0 0 1  358.54999999999995 307.33000000000004 L 307.33 256.11 A 51.22 51.22 0 0 0 358.54999999999995 307.33000000000004" fill="#d29d95"/></g></svg>