<?xml version="1.0" standalone="no"?>
<!DOCTYPE svg PUBLIC "-//W3C//DTD SVG 20010904//EN"
 "http://www.w3.org/TR/2001/REC-SVG-20010904/DTD/svg10.dtd">
<svg version="1.0" xmlns="http://www.w3.org/2000/svg"
 width="300.000000pt" height="534.000000pt" viewBox="0 0 300.000000 534.000000"
 preserveAspectRatio="xMidYMid meet">
<metadata>
Created by potrace 1.10, written by Peter Selinger 2001-2011
</metadata>
<g transform="translate(0.000000,534.000000) scale(0.100000,-0.100000)"
fill="#000000" stroke="none">
<path d="M1412 3760 c-39 -24 -42 -24 -42 -5 0 25 -40 17 -70 -15 -15 -16 -33
-30 -39 -30 -6 0 -18 -12 -28 -27 -10 -16 -21 -31 -25 -34 -23 -16 -30 -109
-8 -109 4 0 13 -21 19 -46 6 -25 23 -56 36 -68 34 -31 53 -106 37 -142 -14
-29 -10 -39 11 -31 22 8 28 62 12 107 -8 22 -11 40 -8 40 4 0 -3 9 -15 21 -12
11 -20 25 -16 30 3 5 0 8 -8 7 -8 -2 -13 7 -13 27 0 65 78 32 88 -37 5 -31 3
-38 -11 -38 -16 -1 -16 -1 1 -11 9 -5 17 -18 17 -28 0 -11 15 -37 33 -59 25
-32 39 -41 64 -41 31 -1 32 -1 17 -28 -19 -38 -19 -60 1 -43 8 7 15 20 15 30
0 23 28 57 60 73 20 10 26 21 28 55 2 27 -1 42 -9 42 -6 0 -9 -8 -6 -20 8 -30
-25 -45 -43 -19 -17 23 -30 25 -30 4 0 -16 -9 -19 -34 -9 -9 3 -14 10 -11 14
3 5 1 11 -5 15 -11 7 -13 -5 -4 -29 4 -11 19 -16 42 -16 36 0 36 0 14 -16 -41
-28 -90 -6 -83 39 0 4 -6 7 -14 7 -10 0 -14 9 -13 24 2 19 5 22 15 14 10 -8
13 -7 13 4 0 7 -9 21 -20 31 -15 12 -20 29 -20 62 0 39 4 47 25 57 13 6 22 15
19 19 -10 17 -30 8 -48 -22 -17 -28 -21 -30 -55 -24 -20 4 -42 12 -50 18 -12
10 -13 9 -7 -8 5 -15 4 -17 -4 -9 -9 9 -9 17 -1 32 6 11 11 32 11 45 0 14 7
30 15 37 11 9 15 9 15 1 0 -7 5 -9 11 -5 8 5 6 10 -5 16 -9 5 -16 14 -16 19 0
6 4 8 9 4 5 -3 12 -1 16 5 4 6 11 7 17 4 6 -4 5 -10 -3 -15 -10 -6 -8 -9 8 -9
19 0 21 3 14 23 -4 12 -6 28 -4 35 6 15 33 16 33 1 0 -7 10 -9 25 -7 17 4 25
1 25 -8 0 -8 -4 -14 -10 -14 -5 0 -10 -11 -10 -25 0 -27 -9 -32 -28 -13 -9 9
-12 7 -12 -11 0 -12 4 -19 10 -16 6 3 10 -4 11 -17 l0 -23 9 22 c5 12 18 26
29 32 25 14 61 14 61 1 0 -8 70 -50 84 -50 2 0 8 15 12 33 7 30 8 43 5 67 -1
13 -55 40 -80 40 -11 0 -26 9 -34 20 -13 19 -13 19 -45 0z m65 -52 c18 -7 33
-16 33 -20 0 -5 10 -13 23 -17 21 -8 21 -9 3 -17 -13 -5 -23 -2 -31 9 -7 9
-15 14 -18 10 -4 -3 -7 -1 -7 6 0 9 -11 12 -33 9 -29 -3 -33 -1 -29 14 5 21
14 22 59 6z"/>
<path d="M1497 3561 c-42 -6 -66 -21 -67 -42 0 -4 15 -9 32 -13 25 -5 36 -2
46 11 11 15 15 16 34 4 19 -12 20 -11 13 6 -4 10 -8 24 -8 31 0 6 -1 11 -1 11
-1 -1 -23 -5 -49 -8z"/>
<path d="M1521 3487 c-7 -14 -10 -30 -6 -37 4 -7 -1 -14 -14 -17 -35 -9 -24
-18 24 -19 42 -1 45 0 45 25 0 14 -8 36 -18 49 l-18 23 -13 -24z m29 -17 c0
-5 -7 -10 -15 -10 -8 0 -15 5 -15 10 0 6 7 10 15 10 8 0 15 -4 15 -10z"/>
<path d="M1230 3232 c0 -4 -29 -27 -65 -50 -45 -30 -67 -51 -72 -70 -3 -15
-12 -36 -18 -47 -16 -25 -27 -125 -15 -125 5 0 12 12 15 28 9 40 36 92 50 92
6 0 20 7 31 16 18 15 17 15 -13 10 -42 -7 -51 16 -16 44 14 11 29 20 33 20 17
0 79 -69 89 -99 15 -47 14 -123 -3 -147 -8 -11 -17 -51 -21 -89 -10 -108 -34
-215 -60 -270 -28 -59 -32 -75 -45 -180 -5 -44 -13 -93 -16 -110 l-7 -30 22
19 c15 14 18 22 9 27 -9 6 -9 11 0 21 6 8 14 30 16 49 18 135 18 135 40 184
23 54 54 149 61 188 3 18 8 46 11 62 13 66 26 162 25 195 -1 57 -21 127 -42
146 -10 9 -19 28 -19 41 0 21 3 22 20 13 16 -9 18 -8 14 5 -9 22 32 19 57 -4
12 -11 50 -34 86 -51 76 -38 95 -33 103 21 l5 34 23 -32 c46 -64 63 -118 61
-192 -1 -54 -5 -68 -15 -64 -8 3 -14 20 -14 38 0 36 -12 50 -46 50 -18 1 -20
-3 -14 -37 4 -20 3 -39 -1 -40 -5 -2 -16 -35 -24 -74 -8 -40 -18 -80 -21 -90
-4 -11 7 -1 23 21 17 22 26 42 21 43 -4 2 -5 9 -1 15 11 18 25 90 24 125 -1
17 4 32 9 32 6 0 9 -29 8 -71 -2 -70 -1 -73 31 -101 21 -19 30 -33 24 -39 -6
-6 -16 -2 -28 11 -10 11 -23 20 -29 20 -13 -1 -70 -80 -57 -80 5 0 11 -8 14
-17 2 -11 7 -3 11 20 9 38 22 46 45 25 11 -11 12 -10 6 2 -5 8 4 2 18 -13 21
-22 27 -38 27 -73 0 -24 -4 -44 -10 -44 -6 0 -9 -43 -8 -107 1 -118 -8 -185
-23 -162 -14 23 -10 -2 9 -55 30 -84 40 -70 39 51 -2 160 15 453 24 423 5 -16
6 -7 3 25 -2 28 -8 109 -12 180 -4 72 -13 139 -19 150 -19 33 -66 73 -95 80
-27 7 -28 6 -28 -34 0 -26 -4 -41 -12 -41 -24 1 -93 38 -147 79 -50 38 -91 53
-91 33z m23 -389 c-8 -52 -13 -54 -13 -5 0 23 4 42 9 42 6 0 7 -17 4 -37z"/>
<path d="M1304 3005 c2 -16 8 -41 15 -55 9 -22 10 -20 5 15 -8 49 -25 84 -20
40z"/>
<path d="M1015 2955 c-5 -11 -10 -114 -11 -230 -1 -153 -6 -229 -18 -280 -18
-80 -20 -98 -7 -91 32 20 69 294 52 390 -3 23 -3 71 1 108 3 37 3 79 -1 94 -7
26 -8 27 -16 9z"/>
<path d="M1643 2506 c4 -145 3 -165 -8 -140 -11 23 -14 25 -14 9 -2 -45 10
-65 40 -65 33 0 36 14 20 97 -6 26 -12 92 -15 147 -2 54 -9 103 -15 109 -9 9
-10 -34 -8 -157z"/>
<path d="M987 2347 c-13 -20 -29 -186 -31 -317 0 -14 -7 -30 -15 -36 -22 -17
3 -28 68 -29 33 0 56 -5 59 -13 2 -7 8 -12 13 -12 16 0 10 19 -11 37 -19 17
-27 53 -14 66 3 3 22 -2 41 -11 34 -17 34 -18 28 -67 -12 -99 -12 -99 23 -122
18 -13 37 -23 41 -23 25 0 27 -75 6 -146 -8 -27 -15 -53 -15 -59 0 -5 20 -18
43 -28 23 -10 50 -23 59 -28 10 -5 32 -10 50 -10 22 -1 26 -3 13 -6 -11 -3
-23 -9 -26 -14 -3 -6 -90 -10 -192 -10 -105 0 -189 -4 -192 -10 -8 -12 50 -13
595 -6 169 3 184 7 265 72 43 34 202 149 248 178 21 13 27 25 25 43 -2 14 -7
24 -11 24 -5 -1 -26 27 -48 61 -22 34 -43 59 -46 55 -3 -3 1 -14 9 -23 8 -10
24 -38 36 -62 17 -36 19 -48 9 -60 -10 -12 -9 -13 11 -2 48 25 19 -10 -40 -50
-35 -24 -105 -73 -156 -111 -51 -38 -97 -66 -102 -63 -12 8 -41 -6 -34 -16 3
-6 -5 -7 -22 -3 -19 5 -25 3 -20 -4 11 -18 -36 -25 -117 -18 -107 8 -161 17
-171 27 -6 5 -20 9 -33 9 -13 0 -23 3 -23 8 0 13 47 183 52 187 2 3 43 0 91
-6 63 -8 96 -7 121 1 32 10 34 13 45 83 6 40 12 102 12 140 2 69 7 78 29 52 7
-8 17 -15 22 -15 5 0 22 -16 39 -35 47 -53 128 -89 189 -83 37 4 50 1 55 -10
3 -8 8 -12 11 -10 3 3 -6 23 -21 43 -14 21 -25 32 -25 26 0 -13 -26 -8 -72 14
-16 8 -28 10 -28 6 0 -4 -6 -8 -14 -8 -8 0 -12 6 -9 14 3 7 -1 13 -8 13 -7 0
-9 3 -6 7 8 8 -11 33 -25 33 -6 0 -4 -8 3 -17 8 -9 -5 -4 -28 11 -23 15 -47
29 -55 30 -24 5 -53 19 -60 30 -4 6 -6 31 -3 56 3 25 0 52 -5 60 -8 11 -9 7
-4 -14 5 -21 4 -27 -5 -22 -6 4 -11 5 -11 2 0 -2 -3 -13 -6 -23 -5 -15 -4 -15
5 -3 15 21 15 -76 -1 -120 -8 -25 -8 -35 0 -38 8 -2 7 -11 -4 -28 -11 -15 -12
-24 -5 -24 8 0 9 -5 2 -19 -6 -10 -8 -21 -5 -24 3 -3 2 -12 -2 -19 -5 -7 -9
-17 -10 -23 0 -5 -2 -15 -2 -22 -4 -28 -32 -42 -80 -37 -26 3 -58 8 -72 12
-14 4 -35 6 -47 4 -27 -4 -62 -51 -69 -89 -9 -49 -28 -93 -40 -93 -23 0 -46
32 -39 54 3 12 9 50 12 86 6 70 -3 86 -60 114 -26 13 -35 58 -14 77 11 11 11
19 0 51 -21 62 -35 79 -52 65 -12 -10 -14 -9 -8 6 6 15 3 17 -13 12 -15 -5
-18 -3 -14 9 3 8 12 17 20 20 10 4 13 13 9 25 -3 11 1 35 9 55 14 33 13 35 -5
33 -10 -1 -21 -8 -23 -17 -3 -8 -12 -46 -21 -85 -9 -38 -23 -77 -31 -86 -8 -9
-12 -23 -9 -31 4 -11 -2 -17 -20 -20 -14 -3 -27 -3 -29 1 -2 3 3 35 11 71 8
36 14 72 14 80 -1 31 1 137 4 188 1 28 1 52 0 52 -2 0 -10 -10 -18 -23z"/>
<path d="M1632 2291 c-19 -12 10 -33 33 -25 12 5 23 1 33 -12 14 -18 14 -18 8
-1 -3 10 -6 21 -6 23 0 2 -8 4 -18 4 -10 0 -22 4 -28 10 -5 5 -15 6 -22 1z"/>
<path d="M2010 2265 c0 -16 22 -45 31 -40 15 10 11 23 -11 35 -11 6 -20 8 -20
5z"/>
<path d="M1663 2228 c7 -20 -3 -24 -20 -7 -8 8 -13 8 -18 -1 -4 -7 1 -14 14
-17 11 -3 18 -9 15 -14 -9 -15 23 -10 36 6 7 9 11 17 9 18 -2 1 -13 9 -23 17
-18 14 -19 13 -13 -2z"/>
<path d="M1715 2200 c3 -6 3 -19 0 -31 -5 -14 -12 -18 -26 -14 -23 8 -42 -2
-33 -17 4 -7 9 -7 13 1 8 12 66 0 66 -15 0 -5 -19 -10 -42 -12 -44 -3 -53 -12
-30 -29 15 -12 79 -34 84 -29 8 7 -10 35 -25 39 -10 3 2 3 26 1 50 -3 69 -20
75 -65 3 -23 4 -19 3 13 -1 25 2 44 7 41 4 -2 7 1 7 6 0 22 18 10 44 -29 15
-23 24 -45 21 -50 -3 -6 -1 -10 6 -10 7 0 21 -7 31 -17 32 -29 18 1 -31 66
-29 37 -47 70 -44 80 6 23 -24 48 -39 33 -13 -13 -2 -46 12 -37 5 3 10 2 10
-3 0 -6 -7 -13 -16 -16 -19 -7 -54 19 -54 40 0 7 -10 14 -22 16 -15 2 -24 11
-26 26 -2 12 -8 22 -13 22 -6 0 -7 -5 -4 -10z"/>
<path d="M1308 2073 c12 -2 30 -2 40 0 9 3 -1 5 -23 4 -22 0 -30 -2 -17 -4z"/>
<path d="M1842 2048 c2 -25 8 -34 26 -36 l22 -3 -21 35 c-26 44 -31 45 -27 4z"/>
<path d="M745 1997 c-27 -11 -54 -26 -58 -31 -4 -6 -6 -43 -4 -83 3 -57 1 -70
-10 -66 -7 3 -13 0 -13 -6 0 -6 6 -11 13 -11 17 -1 52 -28 44 -36 -3 -3 -16 1
-29 10 -12 9 -27 16 -33 16 -5 0 -3 -5 5 -10 22 -14 1 -11 -40 6 l-35 14 32
-5 c25 -3 31 -1 27 10 -9 21 -31 26 -80 15 -80 -18 -122 -46 -148 -98 -33 -66
-40 -131 -25 -225 12 -74 12 -80 -5 -93 -11 -7 -23 -11 -27 -8 -5 3 -9 0 -9
-5 0 -6 -6 -11 -14 -11 -8 0 -18 -5 -21 -11 -8 -13 64 17 85 35 21 19 112 66
127 66 14 0 43 -39 43 -57 0 -7 -8 -13 -19 -13 -10 0 -67 -25 -126 -55 -60
-30 -109 -54 -110 -53 -1 2 -8 13 -14 26 -6 12 -21 22 -31 22 -35 0 -24 -42
17 -68 l36 -23 67 39 67 39 16 -26 c29 -49 112 -124 162 -147 62 -29 116 -30
171 -3 80 38 134 131 134 228 0 47 -24 156 -44 203 -9 20 -13 44 -10 52 3 9 1
16 -5 16 -6 0 -11 -12 -11 -26 l0 -26 -35 34 c-20 18 -39 33 -43 33 -12 0
-123 97 -118 103 3 2 18 -5 35 -17 21 -15 31 -18 34 -9 3 9 16 3 38 -18 34
-31 72 -51 183 -95 45 -18 62 -31 70 -52 6 -15 16 -25 22 -23 6 2 17 0 25 -5
9 -6 -10 -7 -52 -3 -42 4 -73 2 -85 -5 -15 -8 5 -11 86 -10 96 1 102 2 77 15
-15 8 -27 19 -27 24 0 14 13 12 36 -5 22 -16 54 -20 54 -5 0 5 -12 13 -26 16
-20 5 -23 9 -12 16 10 8 9 9 -3 5 -22 -7 -77 12 -114 40 l-30 22 45 -6 c25 -3
53 -10 62 -14 29 -16 34 -10 53 66 l18 74 -24 20 c-13 11 -29 20 -35 21 -5 0
-20 9 -31 19 -21 20 -21 20 -26 0 -4 -15 1 -23 19 -29 13 -5 24 -17 24 -25 0
-23 -31 -114 -41 -120 -15 -10 -161 66 -166 86 -4 14 -11 18 -24 14 -17 -6
-17 -3 -8 24 12 33 33 41 43 16 3 -10 -1 -15 -12 -16 -9 -1 21 -5 68 -10 70
-7 87 -12 103 -31 l19 -23 -6 34 c-4 19 -7 35 -9 36 -1 0 -21 10 -44 22 -30
16 -44 18 -52 10 -9 -9 -13 -6 -18 12 -4 16 -8 19 -14 10 -6 -11 -9 -10 -15 4
-3 9 -13 17 -21 17 -12 0 -13 3 -4 14 10 11 8 16 -9 21 -23 7 -49 -17 -50 -45
0 -13 1 -13 10 0 16 24 12 -30 -5 -65 l-14 -30 5 40 c4 30 3 36 -5 25 -6 -8
-11 -25 -11 -37 0 -12 -6 -24 -12 -26 -7 -3 -3 -6 8 -6 12 -1 24 -8 28 -16 3
-8 11 -15 19 -15 7 0 24 -11 37 -25 48 -51 -54 -11 -111 43 -15 15 -39 35 -53
44 -21 15 -24 25 -25 77 0 57 1 60 37 84 20 14 49 31 65 38 15 7 27 16 27 21
0 13 -31 8 -85 -15z m-132 -221 c50 -18 79 -45 72 -67 -4 -12 0 -16 12 -15 15
1 17 -6 15 -39 -5 -64 7 -123 32 -150 32 -35 37 -31 16 13 -10 20 -21 64 -25
97 l-7 60 26 -35 c14 -19 29 -39 33 -45 4 -5 16 -27 25 -47 17 -37 17 -38 -2
-38 -11 0 -20 -4 -20 -10 0 -5 7 -10 15 -10 8 0 24 -5 34 -12 15 -9 17 -15 8
-29 -9 -14 -6 -23 17 -46 l28 -27 -7 39 c-8 50 -45 168 -54 175 -9 7 -41 58
-41 65 0 3 20 -19 45 -49 36 -45 46 -66 55 -118 8 -50 8 -173 0 -173 -1 0 -3
-8 -5 -18 -3 -19 -51 -86 -69 -99 -25 -17 -36 -8 -29 24 4 22 3 29 -5 24 -8
-5 -12 2 -12 19 0 18 -6 29 -20 32 -11 3 -20 10 -20 15 0 28 -74 66 -95 48
-10 -8 -15 -8 -20 0 -5 7 -14 0 -26 -19 -10 -17 -23 -31 -28 -31 -5 0 -8 -7
-7 -16 2 -29 -18 -25 -41 8 -21 30 -22 61 -1 40 6 -6 22 3 44 26 39 40 38 63
-5 99 -27 23 -25 38 3 27 9 -4 23 -21 31 -38 10 -24 14 -27 14 -11 1 12 -5 27
-11 33 -10 10 -10 15 1 21 10 7 8 12 -8 23 -24 17 -19 48 8 49 13 0 13 2 1 6
-21 8 -30 24 -30 56 0 26 -24 74 -44 89 -5 3 -15 4 -22 1 -6 -2 -15 1 -20 8
-5 9 -2 10 9 6 9 -3 19 -2 22 2 8 14 59 20 79 9 33 -18 76 -27 76 -17 0 17
-71 41 -127 42 -34 1 -48 4 -36 8 28 12 75 9 116 -5z m-97 -103 c4 -15 8 -55
8 -88 1 -56 0 -60 -29 -74 -16 -8 -31 -18 -33 -23 -5 -11 -39 -10 -47 2 -4 6
5 10 19 10 14 0 26 3 27 8 1 4 2 36 3 72 4 100 36 157 52 93z m208 -398 c43
-51 46 -72 11 -72 -13 0 -23 2 -21 6 3 4 -21 19 -53 34 -53 25 -58 30 -53 55
3 15 9 30 15 33 19 13 66 -13 101 -56z m-90 -50 c37 -19 79 -35 92 -35 14 0
23 -4 20 -9 -6 -9 -55 -6 -91 6 -28 9 -95 54 -95 64 0 13 0 13 74 -26z"/>
<path d="M643 1550 c14 -11 33 -40 42 -65 10 -24 21 -42 26 -39 5 3 9 1 9 -5
0 -6 7 -8 15 -4 10 3 15 0 13 -8 -2 -9 4 -13 15 -11 9 2 17 -3 17 -11 0 -8 14
-17 32 -21 35 -7 51 0 22 11 -10 3 -21 9 -24 13 -3 3 -21 17 -40 30 -42 30
-65 56 -81 92 -6 15 -15 25 -19 23 -5 -3 -11 -1 -15 5 -3 5 -13 10 -22 10 -11
0 -8 -6 10 -20z"/>
<path d="M602 1530 c19 -11 48 -65 48 -89 0 -11 3 -12 11 -4 25 25 -20 103
-58 103 -17 -1 -17 -1 -1 -10z"/>
<path d="M1058 1898 c-7 -19 21 -43 34 -30 8 8 6 15 -5 26 -19 19 -24 20 -29
4z"/>
<path d="M1442 1668 c18 -48 32 -67 49 -68 8 0 -12 67 -29 98 -7 12 -19 22
-26 22 -11 0 -10 -11 6 -52z"/>
<path d="M1611 1715 c-1 -5 -4 -25 -6 -43 -1 -19 -8 -39 -14 -45 -7 -7 -7 -14
1 -24 13 -16 3 -29 -27 -36 -11 -3 -4 -5 18 -6 36 -1 37 0 38 37 0 20 2 44 3
52 3 17 -11 81 -13 65z"/>
<path d="M1450 1588 c0 -4 15 -9 33 -9 31 -2 31 -2 -8 -9 l-40 -7 48 -2 c40
-1 48 2 45 15 -2 11 -15 17 -40 19 -21 1 -38 -2 -38 -7z"/>
<path d="M1199 1551 c11 -7 4 -11 -25 -14 -21 -2 -5 -4 36 -4 41 0 60 2 43 4
-18 2 -33 8 -33 14 0 5 -8 9 -17 9 -15 0 -15 -2 -4 -9z"/>
<path d="M1081 1428 c-6 -17 -8 -34 -5 -37 8 -9 34 30 34 51 0 29 -17 21 -29
-14z"/>
<path d="M1440 1452 c0 -11 22 -32 32 -32 5 0 4 9 -2 20 -11 20 -30 28 -30 12z"/>
<path d="M1231 1417 c-6 -8 -13 -24 -15 -38 -3 -13 -5 -24 -6 -24 -1 0 -3 -13
-5 -30 -2 -16 -7 -55 -11 -85 -4 -30 -8 -84 -8 -120 l-1 -65 -38 -3 c-24 -2
-54 4 -79 17 l-40 20 6 -37 c3 -20 6 -47 6 -60 0 -15 9 -26 27 -33 19 -7 23
-13 15 -21 -8 -8 -15 -8 -25 0 -11 9 -12 1 -9 -48 4 -49 1 -63 -17 -86 -17
-21 -21 -41 -21 -94 0 -64 2 -70 40 -118 22 -27 40 -53 40 -56 0 -4 -21 7 -47
24 -46 30 -47 30 -15 3 18 -15 60 -56 93 -89 72 -74 101 -88 174 -82 62 5 105
30 119 70 8 22 4 30 -34 64 -23 22 -53 45 -66 52 -13 7 -32 29 -43 50 -10 20
-28 46 -40 56 -12 11 -21 28 -21 40 0 11 -12 44 -27 73 l-26 53 17 98 c19 106
22 128 31 217 10 110 17 148 36 197 10 27 19 53 19 58 0 14 -16 12 -29 -3z
m-77 -397 c13 -13 -25 -21 -58 -12 -16 5 -32 14 -34 22 -4 10 5 11 39 6 24 -4
48 -11 53 -16z m-28 -138 c1 -64 -2 -92 -10 -92 -26 0 -32 21 -25 88 5 37 8
75 8 85 1 10 7 17 13 15 9 -3 13 -33 14 -96z m45 -116 c-9 -11 -9 -15 1 -18
10 -4 10 -8 -1 -21 -19 -23 -34 -21 -28 3 3 11 1 20 -4 20 -5 0 -9 -14 -9 -31
0 -28 2 -30 30 -25 17 2 30 0 30 -5 0 -5 -6 -9 -12 -9 -8 0 -6 -5 4 -11 9 -5
15 -16 12 -23 -3 -8 -1 -17 5 -21 11 -6 16 -55 5 -55 -11 0 -34 29 -34 44 0 9
-4 16 -10 16 -22 0 -4 -46 31 -81 19 -19 21 -19 54 -3 33 15 35 15 70 -12 45
-34 42 -55 -12 -70 -33 -10 -46 -10 -68 2 -15 8 -34 14 -42 14 -25 0 -98 82
-107 120 -1 3 -8 16 -15 28 -7 14 -10 35 -6 50 6 26 6 26 -14 8 -12 -11 -21
-14 -21 -8 0 7 5 12 10 12 6 0 10 15 10 33 0 46 15 57 65 50 28 -3 45 -1 50 6
4 7 9 10 12 7 3 -3 1 -12 -6 -20z m73 -142 c18 -26 18 -26 -5 -50 l-24 -24 0
50 c0 28 2 50 5 50 3 0 13 -12 24 -26z m13 -182 c40 -3 62 1 93 17 49 25 51
25 43 6 -3 -9 -23 -25 -44 -35 -51 -27 -130 -19 -176 16 -42 32 -42 37 -1 16
18 -8 56 -18 85 -20z"/>
<path d="M1075 737 c-17 -13 -17 -14 4 -20 16 -4 21 -1 21 14 0 23 -1 23 -25
6z"/>
<path d="M1440 1418 c0 -4 9 -27 19 -52 34 -78 44 -157 25 -201 -8 -21 -18
-57 -21 -81 -5 -40 -3 -44 26 -58 17 -9 55 -16 86 -16 40 0 70 -7 107 -26 54
-28 138 -37 188 -21 l25 8 -24 -21 c-22 -18 -34 -21 -96 -17 -40 3 -86 12
-103 21 -17 9 -55 16 -84 16 -31 0 -71 9 -95 20 -47 21 -55 14 -22 -16 16 -14
40 -20 97 -22 46 -2 93 -11 117 -21 56 -25 103 -32 150 -21 37 8 75 40 75 62
0 18 -60 66 -90 73 -17 4 -33 12 -37 18 -13 20 -104 78 -124 80 -11 1 -19 8
-19 17 0 9 -5 21 -11 27 -8 8 -10 47 -7 121 l4 110 -21 -14 c-12 -8 -43 -17
-69 -20 -40 -6 -50 -4 -71 16 -14 13 -25 21 -25 18z m160 -67 c0 -13 -26 -21
-66 -21 -36 0 -47 15 -16 23 31 8 82 7 82 -2z m-20 -68 c0 -14 -27 -17 -54 -7
-27 10 -18 19 19 20 23 0 35 -4 35 -13z m0 -73 c0 -15 -6 -32 -12 -39 -11 -11
-9 -11 8 -1 16 10 26 10 40 2 18 -11 18 -11 -3 -12 -13 0 -23 -2 -23 -4 0 -2
-3 -11 -6 -20 -5 -12 0 -16 17 -16 20 0 21 2 9 11 -13 9 -13 10 0 6 9 -2 15
-15 15 -31 -1 -16 4 -25 11 -22 6 2 17 -1 23 -7 8 -8 11 -7 11 3 0 9 5 7 14
-6 11 -14 11 -21 3 -26 -9 -5 -9 -10 1 -20 9 -9 12 -9 12 5 0 9 3 17 6 17 15
0 64 -43 64 -56 0 -19 -12 -18 -36 4 -10 9 -30 18 -44 18 -27 2 -167 38 -174
45 -3 2 -8 18 -11 34 -6 25 -5 28 6 18 7 -7 20 -13 28 -13 12 0 11 3 -2 18
-14 15 -15 25 -6 55 5 21 7 41 4 46 -3 5 2 17 11 26 20 20 34 5 34 -35z m161
-141 c11 -5 17 -14 14 -19 -6 -9 -65 14 -65 25 0 9 31 5 51 -6z m79 -53 c38
-22 43 -44 6 -30 -9 3 -16 1 -16 -6 0 -6 -4 -9 -10 -5 -5 3 -7 12 -4 20 4 8
-1 18 -10 21 -9 3 -16 10 -16 15 0 13 3 12 50 -15z"/>
<path d="M1031 1183 c1 -63 2 -65 10 -28 11 56 11 95 -1 95 -6 0 -10 -28 -9
-67z"/>
</g>
</svg>
